<?xml version="1.0" standalone="no"?>
<!DOCTYPE svg PUBLIC "-//W3C//DTD SVG 20010904//EN"
 "http://www.w3.org/TR/2001/REC-SVG-20010904/DTD/svg10.dtd">
<svg version="1.0" xmlns="http://www.w3.org/2000/svg"
 width="1280.000000pt" height="1280.000000pt" viewBox="0 0 1280.000000 1280.000000"
 preserveAspectRatio="xMidYMid meet">
<metadata>
Created by potrace 1.15, written by Peter Selinger 2001-2017
</metadata>
<g transform="translate(0.000000,1280.000000) scale(0.100000,-0.100000)"
fill="#000000" stroke="none">
<path d="M6185 10570 c-1288 -59 -2486 -717 -3242 -1783 -419 -590 -675 -1288
-743 -2027 -17 -178 -14 -589 5 -775 116 -1131 669 -2135 1576 -2861 109 -87
395 -280 519 -349 516 -291 1032 -457 1650 -532 182 -22 684 -25 860 -4 409
47 760 130 1105 261 553 212 1056 539 1480 965 540 541 923 1225 1101 1965 83
342 108 573 109 970 0 386 -23 596 -102 935 -307 1322 -1254 2424 -2518 2933
-575 231 -1168 330 -1800 302z"/>
</g>
</svg>
